<svg width="94" height="85" viewBox="0 0 94 85" fill="none" xmlns="http://www.w3.org/2000/svg">
<path d="M1.72545 67.5871C6.32195 76.3848 14.4165 76.0158 22.9862 75.6327C26.9361 75.4553 31.4157 75.2496 36.4875 75.7462C58.4338 77.9031 77.4899 71.7092 87.4619 59.1797C94.6683 50.1337 95.7824 39.1721 90.5159 29.1045C85.2572 19.0368 75.2072 12.9139 62.9602 12.2967C45.9999 11.4453 28.7046 21.0021 16.6991 37.8737C13.9257 41.7759 10.9262 44.8125 8.2852 47.4873C2.54347 53.3051 -2.87106 58.7966 1.72545 67.5871Z" fill="#2A5846"/>
<path d="M34.6652 1.3058C24.8022 5.08028 24.7866 12.3596 24.7633 20.0718C24.7555 23.6263 24.7477 27.6562 23.9375 32.1828C20.4472 51.8001 26.2357 69.1542 39.4253 78.6046C48.9533 85.4299 60.8887 86.8701 72.1696 82.5494C83.4505 78.2286 90.6725 69.4593 91.9813 58.4835C93.7887 43.2933 84.2296 27.3866 66.3967 15.9355C62.2754 13.2891 59.1046 10.4795 56.3077 7.99628C50.2466 2.61126 44.5204 -2.46868 34.6652 1.3058Z" fill="#2A5846"/>
<path d="M35.8643 3.90069C27.5906 7.06501 27.8555 13.7768 28.1282 20.8788C28.2528 24.1495 28.4008 27.8672 27.8866 32.0177C25.6507 49.982 31.2522 66.1512 42.8759 75.2823C51.2665 81.8735 61.5112 83.5763 70.9769 79.9508C80.4426 76.3253 86.27 68.4713 86.9712 58.3965C87.9372 44.4551 79.1649 29.4919 63.5134 18.3814C59.8908 15.813 57.0861 13.124 54.6009 10.7473C49.2175 5.59637 44.138 0.736369 35.8643 3.90069Z" fill="#0C9A61"/>
</svg>
