<svg width="378" height="378" viewBox="0 0 378 378" fill="none" xmlns="http://www.w3.org/2000/svg">
<rect width="378" height="378" rx="30" fill="#0074E8"/>
<path d="M214.177 99.965C214.642 99.6668 215.261 99.8015 215.55 100.272C222.284 111.235 224.609 124.334 222.014 136.83C219.351 149.649 211.728 160.782 200.821 167.78C189.914 174.779 176.616 177.068 163.854 174.146C151.414 171.298 140.475 163.724 133.316 153.035C133.009 152.576 133.145 151.956 133.609 151.658L173.893 125.811L214.177 99.965Z" fill="white"/>
<path d="M124.817 255.17C124.274 255.273 123.75 254.916 123.655 254.372C122.171 245.858 122.313 237.136 124.077 228.669C125.91 219.876 129.456 211.529 134.514 204.106C139.572 196.684 146.043 190.33 153.557 185.408C161.07 180.486 169.48 177.091 178.305 175.419C187.131 173.747 196.199 173.83 204.992 175.662C213.786 177.495 222.132 181.041 229.555 186.1C236.978 191.158 243.332 197.628 248.254 205.142C252.993 212.377 256.316 220.442 258.049 228.91C258.16 229.451 257.802 229.974 257.26 230.077L191.038 242.623L124.817 255.17Z" fill="white"/>
</svg>
