<svg width="781" height="230" viewBox="0 0 781 230" fill="none" xmlns="http://www.w3.org/2000/svg">
<path d="M206.469 139V93.9062H225.062C234.562 93.9062 240.906 100.031 240.906 109.312V109.375C240.906 118.656 234.562 124.781 225.062 124.781H215.906V139H206.469ZM222.75 101.375H215.906V117.406H222.75C228.156 117.406 231.344 114.531 231.344 109.406V109.344C231.344 104.219 228.156 101.375 222.75 101.375ZM263.031 139.719C252.438 139.719 246.062 133 246.062 121.812V121.75C246.062 110.656 252.531 103.844 263.031 103.844C273.531 103.844 280 110.625 280 121.75V121.812C280 133.031 273.625 139.719 263.031 139.719ZM263.031 132.562C267.875 132.562 270.656 128.594 270.656 121.812V121.75C270.656 115.031 267.844 111 263.031 111C258.188 111 255.406 115.031 255.406 121.75V121.812C255.406 128.594 258.156 132.562 263.031 132.562ZM302.594 139.719C291.844 139.719 285.75 133.188 285.75 121.75V121.688C285.75 110.375 291.812 103.844 302.594 103.844C311.719 103.844 317.125 108.812 317.938 116.5V116.594H309.438L309.406 116.531C308.812 113.188 306.531 111 302.625 111C297.719 111 295.031 114.812 295.031 121.688V121.75C295.031 128.719 297.75 132.562 302.625 132.562C306.375 132.562 308.594 130.781 309.406 127.344L309.469 127.219H317.906L317.875 127.406C316.938 134.906 311.562 139.719 302.594 139.719ZM325.375 139V91.4375H334.5V118.188H335.062L346.562 104.594H356.906L343.688 119.188L357.812 139H347.031L337 124.812L334.5 127.469V139H325.375ZM376.625 139.719C366.156 139.719 359.812 132.875 359.812 121.844V121.812C359.812 110.875 366.219 103.844 376.25 103.844C386.281 103.844 392.531 110.719 392.531 121.125V123.969H368.844C368.938 129.625 371.969 132.906 376.812 132.906C380.812 132.906 383.031 130.781 383.656 129.469L383.75 129.281H392.25L392.188 129.594C391.125 133.906 386.688 139.719 376.625 139.719ZM376.406 110.688C372.438 110.688 369.5 113.375 368.938 118.25H383.781C383.219 113.25 380.375 110.688 376.406 110.688ZM414.281 139.125C405.906 139.125 402.531 136.406 402.531 129.719V111.469H397.219V104.594H402.531V96.375H411.75V104.594H418.844V111.469H411.75V127.625C411.75 130.719 413.062 132.094 416.156 132.094C417.344 132.094 417.969 132.031 418.844 131.938V138.719C417.719 138.938 416.031 139.125 414.281 139.125ZM446.5 140.156C433.438 140.156 425.344 131.094 425.344 116.469V116.406C425.344 101.781 433.406 92.75 446.5 92.75C457.188 92.75 465.188 99.5625 466.062 109.094V109.469H456.875V109.25C455.906 104.188 451.875 100.75 446.5 100.75C439.406 100.75 435 106.719 435 116.406V116.469C435 126.156 439.406 132.156 446.531 132.156C451.938 132.156 455.844 129 456.844 124.188L456.906 123.938H466.094L466.062 124.281C465.094 133.719 457.375 140.156 446.5 140.156ZM474.188 139V91.4375H483.312V109.906H483.875C485.438 106.188 488.844 103.844 493.75 103.844C501.406 103.844 505.531 108.531 505.531 116.75V139H496.406V118.812C496.406 113.969 494.406 111.406 490.094 111.406C485.875 111.406 483.312 114.438 483.312 119.094V139H474.188ZM523.75 139.531C517.188 139.531 512.531 135.469 512.531 129.219V129.156C512.531 122.969 517.312 119.344 525.875 118.844L534.188 118.344V115.5C534.188 112.531 532.156 110.844 528.406 110.844C525.125 110.844 523.031 112 522.312 114.031L522.25 114.156H513.812L513.844 113.875C514.562 107.844 520.25 103.844 528.906 103.844C538.031 103.844 543.188 108.156 543.188 115.5V139H534.188V134.438H533.625C531.875 137.625 528.25 139.531 523.75 139.531ZM521.438 128.656C521.438 131.281 523.656 132.875 526.812 132.875C531.031 132.875 534.188 130.094 534.188 126.469V123.938L527.25 124.375C523.344 124.625 521.438 126.094 521.438 128.594V128.656ZM552.125 139V104.594H561.25V109.906H561.812C563.375 106.188 566.781 103.844 571.688 103.844C579.344 103.844 583.469 108.531 583.469 116.75V139H574.344V118.812C574.344 113.969 572.344 111.406 568.031 111.406C563.812 111.406 561.25 114.438 561.25 119.094V139H552.125ZM607.5 151.094C597.969 151.094 592.438 147.094 591.688 141.25V141.094H600.719L600.75 141.219C601.25 143.219 603.625 144.594 607.688 144.594C612.562 144.594 615.406 142.312 615.406 138.312V131.906H614.844C612.938 135.531 609.312 137.5 604.531 137.5C595.875 137.5 590.531 130.812 590.531 121.031V120.969C590.531 110.844 595.875 104.031 604.688 104.031C609.406 104.031 613.094 106.344 614.938 110.219H615.375V104.594H624.5V137.938C624.5 146 617.906 151.094 607.5 151.094ZM607.625 130.5C612.562 130.5 615.5 126.656 615.5 121V120.938C615.5 115.281 612.531 111.438 607.625 111.438C602.719 111.438 599.875 115.281 599.875 120.938V121C599.875 126.656 602.688 130.5 607.625 130.5ZM648.75 139.719C638.281 139.719 631.938 132.875 631.938 121.844V121.812C631.938 110.875 638.344 103.844 648.375 103.844C658.406 103.844 664.656 110.719 664.656 121.125V123.969H640.969C641.062 129.625 644.094 132.906 648.938 132.906C652.938 132.906 655.156 130.781 655.781 129.469L655.875 129.281H664.375L664.312 129.594C663.25 133.906 658.812 139.719 648.75 139.719ZM648.531 110.688C644.562 110.688 641.625 113.375 641.062 118.25H655.906C655.344 113.25 652.5 110.688 648.531 110.688Z" fill="#101010"/>
<path d="M157.755 82.2208C158.22 81.9226 158.84 82.0566 159.118 82.5342C161.895 87.3142 162.828 92.948 161.71 98.3301C160.525 104.036 157.132 108.991 152.277 112.106C147.422 115.221 141.503 116.241 135.822 114.94C130.464 113.713 125.732 110.517 122.544 106C122.226 105.549 122.363 104.929 122.827 104.63L140.291 93.4256L157.755 82.2208Z" fill="#101010"/>
<path d="M117.65 151.062C117.107 151.165 116.582 150.808 116.497 150.263C115.935 146.647 116.028 142.957 116.776 139.369C117.591 135.455 119.17 131.74 121.421 128.436C123.673 125.132 126.553 122.304 129.897 120.113C133.242 117.922 136.985 116.412 140.913 115.667C144.841 114.923 148.878 114.96 152.792 115.776C156.706 116.591 160.421 118.17 163.725 120.421C167.029 122.673 169.857 125.553 172.048 128.897C174.056 131.963 175.493 135.363 176.291 138.934C176.412 139.473 176.054 139.996 175.511 140.099L146.581 145.581L117.65 151.062Z" fill="#101010"/>
<rect x="205" width="1" height="230" fill="#D9D9D9"/>
<rect x="177" width="1" height="230" fill="#D9D9D9"/>
<rect x="665" width="1" height="230" fill="#D9D9D9"/>
<rect x="115" width="1" height="230" fill="#D9D9D9"/>
<rect y="140" width="781" height="1" fill="#D9D9D9"/>
<rect y="81" width="781" height="1" fill="#D9D9D9"/>
<rect y="91" width="781" height="1" fill="#D9D9D9"/>
<rect y="151" width="781" height="1" fill="#D9D9D9"/>
</svg>
