<svg width="74" height="118" viewBox="0 0 74 118" fill="none" xmlns="http://www.w3.org/2000/svg">
<path d="M47.7547 19.2208C48.2195 18.9226 48.8402 19.0566 49.1177 19.5342C51.8949 24.3142 52.8279 29.948 51.7101 35.3301C50.5249 41.036 47.1317 45.9915 42.2768 49.1064C37.4219 52.2213 31.5031 53.2405 25.8225 51.9398C20.4642 50.7129 15.7319 47.5167 12.5442 43.0001C12.2258 42.5488 12.3626 41.9287 12.8274 41.6305L30.291 30.4256L47.7547 19.2208Z" fill="#0074E8"/>
<path d="M8.9919 87.9007C8.44927 88.0035 7.92432 87.6472 7.83939 87.1015C7.27667 83.4859 7.36992 79.7957 8.11753 76.2082C8.93319 72.2942 10.5118 68.5791 12.7632 65.2752C15.0146 61.9712 17.8948 59.143 21.2392 56.9522C24.5836 54.7613 28.3268 53.2506 32.255 52.5063C36.1832 51.7621 40.2196 51.7988 44.1337 52.6145C48.0477 53.4301 51.7628 55.0087 55.0667 57.2602C58.3707 59.5116 61.1988 62.3917 63.3897 65.7361C65.3978 68.8015 66.8345 72.2018 67.6333 75.7726C67.7539 76.3116 67.3957 76.8353 66.8531 76.9381L37.9225 82.4194L8.9919 87.9007Z" fill="#1BD665"/>
</svg>
