<svg width="1183" height="535" viewBox="0 0 1183 535" fill="none" xmlns="http://www.w3.org/2000/svg">
<path d="M15.0938 427L131.469 111.344H170.406L286.781 427H245.438L213.719 336.656H88.1562L56.4375 427H15.0938ZM149.188 162.312L99.75 303.188H202.125L152.688 162.312H149.188ZM399.875 431.156C355.031 431.156 321.125 404.031 321.125 361.156V360.719C321.125 318.719 352.188 294.438 407.094 291.156L474.688 287V265.562C474.688 236.469 456.969 220.719 421.75 220.719C393.531 220.719 374.938 231.219 368.812 249.594L368.594 250.25H330.531L330.75 248.938C336.875 211.969 372.75 187.031 423.062 187.031C480.594 187.031 512.75 216.562 512.75 265.562V427H474.688V392.219H471.188C456.312 417.375 431.594 431.156 399.875 431.156ZM360.062 360.281C360.062 384.125 380.406 398.125 407.75 398.125C446.469 398.125 474.688 372.75 474.688 339.062V317.625L411.688 321.562C375.812 323.75 360.062 336.438 360.062 359.844V360.281Z" fill="#101010"/>
<path d="M326.549 138.598C320.994 138.598 317.408 135.68 317.039 131.549L317.021 131.355H320.186L320.203 131.549C320.432 134.08 323.068 135.68 326.725 135.68C330.17 135.68 332.684 133.904 332.684 131.32V131.303C332.684 129.193 331.225 127.752 327.744 126.979L324.932 126.363C319.852 125.238 317.654 122.9 317.654 119.227V119.209C317.672 115.008 321.346 112.037 326.584 112.037C331.646 112.037 335.18 115.025 335.443 118.805L335.461 119.051H332.297L332.262 118.822C331.91 116.59 329.801 114.938 326.496 114.955C323.332 114.973 320.889 116.467 320.889 119.121V119.139C320.889 121.16 322.277 122.531 325.723 123.287L328.535 123.92C333.826 125.098 335.918 127.225 335.918 130.881V130.898C335.918 135.645 332.209 138.598 326.549 138.598ZM341.191 138V112.635H356.59V115.482H344.355V124.201H355.588V127.014H344.355V138H341.191ZM371.918 138V112.635H381.48C386.244 112.635 389.619 115.922 389.619 120.738V120.773C389.619 125.59 386.244 128.947 381.48 128.947H375.082V138H371.918ZM380.672 115.447H375.082V126.135H380.672C384.293 126.135 386.385 124.148 386.385 120.809V120.773C386.385 117.434 384.293 115.447 380.672 115.447ZM394.418 138V119.051H397.477V121.863H397.758C398.479 119.877 400.254 118.717 402.82 118.717C403.4 118.717 404.051 118.787 404.35 118.84V121.811C403.717 121.705 403.137 121.635 402.469 121.635C399.551 121.635 397.477 123.48 397.477 126.258V138H394.418ZM415.389 138.334C409.992 138.334 406.652 134.607 406.652 128.543V128.508C406.652 122.426 409.992 118.717 415.389 118.717C420.785 118.717 424.125 122.426 424.125 128.508V128.543C424.125 134.607 420.785 138.334 415.389 138.334ZM415.389 135.627C418.975 135.627 420.996 133.008 420.996 128.543V128.508C420.996 124.025 418.975 121.424 415.389 121.424C411.803 121.424 409.781 124.025 409.781 128.508V128.543C409.781 133.008 411.803 135.627 415.389 135.627ZM445.975 138V115.482H437.801V112.635H457.312V115.482H449.139V138H445.975ZM466.031 138.334C460.617 138.334 457.348 134.537 457.348 128.596V128.578C457.348 122.725 460.688 118.717 465.838 118.717C470.988 118.717 474.117 122.549 474.117 128.209V129.404H460.477C460.564 133.324 462.727 135.609 466.102 135.609C468.668 135.609 470.25 134.396 470.76 133.254L470.83 133.096H473.889L473.854 133.236C473.203 135.803 470.496 138.334 466.031 138.334ZM465.82 121.441C463.008 121.441 460.863 123.357 460.529 126.961H471.006C470.689 123.217 468.615 121.441 465.82 121.441ZM476.648 138L483.135 128.525L476.578 119.051H480.182L484.682 126.1H484.963L489.41 119.051H492.838L486.404 128.402L492.926 138H489.34L484.857 130.846H484.576L480.076 138H476.648ZM503.771 138.141C499.869 138.141 498.234 136.699 498.234 133.078V121.582H495.246V119.051H498.234V114.146H501.398V119.051H505.547V121.582H501.398V132.305C501.398 134.537 502.172 135.434 504.141 135.434C504.686 135.434 504.984 135.416 505.547 135.363V137.965C504.949 138.07 504.369 138.141 503.771 138.141Z" fill="#101010"/>
<path d="M676.238 218L682.238 201.09H685.648L691.648 218H688.484L687.066 213.629H680.809L679.402 218H676.238ZM683.844 204.23L681.57 211.297H686.316L684.043 204.23H683.844ZM694.555 218V201.09H701.621C704.832 201.09 706.766 202.707 706.766 205.297V205.32C706.766 207.09 705.453 208.66 703.754 208.93V209.141C706.027 209.352 707.598 210.992 707.598 213.184V213.207C707.598 216.172 705.395 218 701.785 218H694.555ZM700.883 203.445H697.578V208.215H700.496C702.641 208.215 703.777 207.383 703.777 205.848V205.824C703.777 204.324 702.711 203.445 700.883 203.445ZM700.977 210.359H697.578V215.645H701.094C703.32 215.645 704.504 214.719 704.504 212.996V212.973C704.504 211.262 703.285 210.359 700.977 210.359ZM717.945 218.422C713.152 218.422 710.176 215.023 710.176 209.562V209.539C710.176 204.055 713.141 200.668 717.934 200.668C721.777 200.668 724.695 203.105 725.094 206.562V206.656H722.129L722.117 206.609C721.684 204.605 720.066 203.281 717.934 203.281C715.062 203.281 713.27 205.684 713.27 209.527V209.551C713.27 213.406 715.062 215.809 717.945 215.809C720.09 215.809 721.684 214.613 722.117 212.75L722.129 212.691H725.094V212.773C724.648 216.16 721.848 218.422 717.945 218.422ZM728.469 218V201.09H734.809C739.836 201.09 742.766 204.16 742.766 209.457V209.48C742.766 214.895 739.871 218 734.809 218H728.469ZM731.492 215.457H734.41C737.773 215.457 739.684 213.324 739.684 209.527V209.504C739.684 205.789 737.727 203.633 734.41 203.633H731.492V215.457ZM746.234 218V201.09H757.18V203.633H749.258V208.215H756.746V210.617H749.258V215.457H757.18V218H746.234ZM760.93 218V201.09H771.711V203.633H763.953V208.637H771.043V211.098H763.953V218H760.93ZM782.293 218.422C777.395 218.422 774.348 215.012 774.348 209.551V209.527C774.348 204.125 777.43 200.668 782.246 200.668C786.148 200.668 788.961 202.906 789.535 206.211L789.547 206.328H786.547L786.512 206.211C785.961 204.359 784.414 203.281 782.246 203.281C779.293 203.281 777.43 205.684 777.43 209.504V209.527C777.43 213.406 779.328 215.809 782.34 215.809C784.918 215.809 786.676 214.203 786.711 211.801L786.723 211.449H782.668V209.141H789.688V211.25C789.688 215.621 786.805 218.422 782.293 218.422ZM793.203 218V201.09H796.227V208.121H804.453V201.09H807.465V218H804.453V210.664H796.227V218H793.203ZM811.648 218V201.09H814.672V218H811.648ZM823.051 218.422C819.77 218.422 817.812 216.441 817.695 213.547L817.684 213.418H820.637L820.648 213.5C820.73 214.801 821.527 215.773 823.027 215.773C824.656 215.773 825.523 214.789 825.523 212.961V201.09H828.547V212.984C828.547 216.406 826.52 218.422 823.051 218.422ZM832.719 218V201.09H835.742V208.906H835.941L842.609 201.09H846.078L839.703 208.461L846.582 218H842.891L837.547 210.465L835.742 212.562V218H832.719ZM849.312 218V201.09H852.336V215.457H860.094V218H849.312ZM863.352 218V201.09H866.82L871.906 214.098H872.105L877.18 201.09H880.648V218H877.93V205.977H877.719L873.031 218H870.969L866.281 205.977H866.082V218H863.352ZM884.82 218V201.09H887.445L895.754 212.738H895.941V201.09H898.848V218H896.234L887.926 206.352H887.738V218H884.82ZM910.32 218.422C905.363 218.422 902.316 214.988 902.316 209.551V209.527C902.316 204.078 905.41 200.668 910.32 200.668C915.242 200.668 918.312 204.078 918.312 209.527V209.551C918.312 214.988 915.254 218.422 910.32 218.422ZM910.32 215.809C913.332 215.809 915.23 213.348 915.23 209.551V209.527C915.23 205.707 913.32 203.281 910.32 203.281C907.32 203.281 905.398 205.707 905.398 209.527V209.551C905.398 213.348 907.273 215.809 910.32 215.809ZM921.781 218V201.09H928.531C931.965 201.09 934.285 203.352 934.285 206.738V206.762C934.285 210.137 931.965 212.41 928.531 212.41H924.805V218H921.781ZM927.793 203.562H924.805V209.973H927.793C929.961 209.973 931.227 208.801 931.227 206.773V206.75C931.227 204.723 929.961 203.562 927.793 203.562ZM944.914 218.422C939.957 218.422 936.91 214.988 936.91 209.551V209.527C936.91 204.078 940.004 200.668 944.914 200.668C949.836 200.668 952.906 204.078 952.906 209.527V209.551C952.906 212.715 951.863 215.211 950.023 216.734L952.273 219.758H949.32L947.949 217.918C947.035 218.246 946.027 218.422 944.914 218.422ZM944.914 215.809C945.383 215.809 945.828 215.75 946.25 215.633L944.07 212.703H947.023L948.266 214.379C949.262 213.277 949.824 211.613 949.824 209.551V209.527C949.824 205.707 947.914 203.281 944.914 203.281C941.914 203.281 939.992 205.707 939.992 209.527V209.551C939.992 213.348 941.867 215.809 944.914 215.809ZM956.375 218V201.09H963.207C966.84 201.09 969.02 203.117 969.02 206.34V206.363C969.02 208.602 967.836 210.453 965.832 211.18L969.523 218H966.066L962.75 211.637H959.398V218H956.375ZM959.398 209.316H962.891C964.801 209.316 965.914 208.25 965.914 206.434V206.41C965.914 204.641 964.754 203.539 962.832 203.539H959.398V209.316ZM978.559 218.422C974.633 218.422 972.137 216.488 971.926 213.57L971.914 213.406H974.844L974.855 213.523C974.996 214.941 976.508 215.879 978.652 215.879C980.691 215.879 982.121 214.871 982.121 213.418V213.406C982.121 212.188 981.242 211.449 979.062 210.98L977.246 210.605C973.789 209.879 972.289 208.262 972.289 205.742V205.73C972.289 202.707 974.891 200.668 978.547 200.668C982.297 200.668 984.629 202.719 984.84 205.438L984.852 205.59H981.957L981.934 205.449C981.723 204.137 980.469 203.199 978.535 203.211C976.66 203.211 975.324 204.09 975.324 205.531V205.543C975.324 206.738 976.18 207.488 978.289 207.934L980.105 208.32C983.668 209.07 985.156 210.5 985.156 213.055V213.066C985.156 216.359 982.613 218.422 978.559 218.422ZM992.762 218V203.633H987.559V201.09H1001V203.633H995.785V218H992.762ZM1011.1 218.422C1006.82 218.422 1004.15 215.902 1004.15 212.176V201.09H1007.18V211.93C1007.18 214.262 1008.59 215.809 1011.11 215.809C1013.62 215.809 1015.03 214.262 1015.03 211.93V201.09H1018.05V212.176C1018.05 215.902 1015.4 218.422 1011.1 218.422ZM1026.8 218L1020.96 201.09H1024.29L1028.47 214.508H1028.67L1032.85 201.09H1036.19L1030.34 218H1026.8ZM1042.59 218L1038.05 201.09H1041.21L1044.1 213.781H1044.28L1047.61 201.09H1050.29L1053.66 213.781H1053.83L1056.72 201.09H1059.85L1055.32 218H1052.48L1049.04 205.895H1048.86L1045.44 218H1042.59ZM1061.91 218L1067.43 209.48V209.445L1061.96 201.09H1065.54L1069.46 207.453H1069.59L1073.5 201.09H1076.9L1071.24 209.527V209.562L1076.81 218H1073.32L1069.32 211.777H1069.21L1065.22 218H1061.91ZM1084.71 218V211.332L1078.78 201.09H1082.08L1086.11 208.344H1086.31L1090.34 201.09H1093.65L1087.72 211.332V218H1084.71ZM1096.11 218V215.984L1105 203.844V203.633H1096.36V201.09H1108.74V203.105L1099.88 215.246V215.457H1108.96V218H1096.11ZM724.449 247.211C722.012 247.211 720.242 245.711 720.242 243.379V243.355C720.242 241.07 721.988 239.734 725.105 239.547L728.398 239.348V238.246C728.398 236.969 727.566 236.266 725.996 236.266C724.66 236.266 723.793 236.746 723.5 237.59L723.488 237.637H720.734L720.746 237.531C721.027 235.375 723.09 233.945 726.137 233.945C729.43 233.945 731.281 235.539 731.281 238.246V247H728.398V245.242H728.199C727.496 246.484 726.137 247.211 724.449 247.211ZM723.125 243.238C723.125 244.328 724.051 244.973 725.34 244.973C727.098 244.973 728.398 243.824 728.398 242.301V241.27L725.516 241.457C723.887 241.562 723.125 242.16 723.125 243.215V243.238ZM741.91 247.211C740.117 247.211 738.723 246.391 738.02 244.996H737.82V247H734.902V229.234H737.82V236.23H738.02C738.688 234.848 740.152 233.98 741.91 233.98C745.156 233.98 747.172 236.512 747.172 240.59V240.613C747.172 244.668 745.121 247.211 741.91 247.211ZM740.996 244.75C742.988 244.75 744.195 243.191 744.195 240.613V240.59C744.195 238.012 742.988 236.441 740.996 236.441C739.016 236.441 737.785 238.023 737.785 240.59V240.613C737.785 243.18 739.016 244.75 740.996 244.75ZM755.586 247.258C751.73 247.258 749.457 244.762 749.457 240.578V240.555C749.457 236.418 751.719 233.945 755.574 233.945C758.867 233.945 760.836 235.773 761.164 238.422V238.469H758.41L758.398 238.434C758.129 237.191 757.18 236.301 755.586 236.301C753.594 236.301 752.422 237.871 752.422 240.555V240.578C752.422 243.297 753.605 244.891 755.586 244.891C757.098 244.891 758.023 244.199 758.387 242.852L758.41 242.805L761.164 242.793L761.141 242.887C760.719 245.512 758.832 247.258 755.586 247.258ZM768.559 247.211C765.348 247.211 763.309 244.668 763.309 240.613V240.59C763.309 236.512 765.312 233.98 768.559 233.98C770.316 233.98 771.781 234.848 772.449 236.23H772.648V229.234H775.578V247H772.648V244.996H772.449C771.746 246.391 770.363 247.211 768.559 247.211ZM769.473 244.75C771.465 244.75 772.695 243.18 772.695 240.613V240.59C772.695 238.023 771.453 236.441 769.473 236.441C767.492 236.441 766.273 238.012 766.273 240.59V240.613C766.273 243.191 767.48 244.75 769.473 244.75ZM784.73 247.258C780.922 247.258 778.613 244.703 778.613 240.625V240.613C778.613 236.582 780.945 233.945 784.59 233.945C788.234 233.945 790.484 236.5 790.484 240.367V241.328H781.531C781.566 243.625 782.809 244.961 784.789 244.961C786.371 244.961 787.273 244.164 787.555 243.578L787.59 243.496H790.367L790.332 243.602C789.922 245.254 788.211 247.258 784.73 247.258ZM784.625 236.23C782.996 236.23 781.777 237.332 781.555 239.371H787.637C787.438 237.273 786.254 236.23 784.625 236.23ZM794.34 247V236.453H792.242V234.191H794.34V232.926C794.34 230.371 795.629 229.117 798.488 229.117C799.109 229.117 799.637 229.152 800.105 229.234V231.273C799.883 231.238 799.52 231.215 799.109 231.215C797.738 231.215 797.211 231.871 797.211 233.09V234.191H799.988V236.453H797.258V247H794.34ZM807.84 251.5C804.465 251.5 802.438 250.059 802.145 247.902L802.156 247.867H805.074L805.086 247.902C805.285 248.723 806.258 249.297 807.887 249.297C809.879 249.297 811.039 248.371 811.039 246.73V244.281H810.84C810.102 245.652 808.707 246.402 806.938 246.402C803.691 246.402 801.676 243.895 801.676 240.262V240.238C801.676 236.535 803.691 233.98 806.996 233.98C808.766 233.98 810.148 234.848 810.875 236.301H811.027V234.191H813.945V246.684C813.945 249.637 811.578 251.5 807.84 251.5ZM807.84 244.082C809.867 244.082 811.086 242.523 811.086 240.262V240.238C811.086 237.977 809.855 236.406 807.84 236.406C805.812 236.406 804.664 237.977 804.664 240.238V240.262C804.664 242.523 805.812 244.082 807.84 244.082ZM817.637 247V229.234H820.555V236.148H820.754C821.363 234.777 822.594 233.945 824.445 233.945C827.305 233.945 828.863 235.668 828.863 238.715V247H825.945V239.395C825.945 237.402 825.137 236.395 823.367 236.395C821.633 236.395 820.555 237.613 820.555 239.535V247H817.637ZM833.809 232.047C832.848 232.047 832.062 231.285 832.062 230.324C832.062 229.375 832.848 228.602 833.809 228.602C834.758 228.602 835.543 229.375 835.543 230.324C835.543 231.285 834.758 232.047 833.809 232.047ZM832.344 247V234.191H835.262V247H832.344ZM840.324 232.047C839.375 232.047 838.59 231.285 838.59 230.324C838.59 229.375 839.375 228.602 840.324 228.602C841.285 228.602 842.07 229.375 842.07 230.324C842.07 231.285 841.285 232.047 840.324 232.047ZM837.465 251.371C837.23 251.371 836.926 251.359 836.762 251.348V249.051C836.879 249.062 837.008 249.062 837.137 249.062C838.379 249.062 838.871 248.641 838.871 247.457V234.191H841.789V247.492C841.789 250.117 840.336 251.371 837.465 251.371ZM845.504 247V229.234H848.422V239.441H848.621L853.344 234.191H856.719L851.562 239.605L857.07 247H853.555L849.441 241.457L848.422 242.5V247H845.504ZM859.426 247V229.234H862.344V247H859.426ZM866.035 247V234.191H868.953V236.184H869.152C869.703 234.754 870.992 233.945 872.668 233.945C874.402 233.945 875.668 234.836 876.219 236.254H876.418C877.039 234.859 878.516 233.945 880.297 233.945C882.875 233.945 884.422 235.527 884.422 238.188V247H881.504V238.902C881.504 237.238 880.742 236.395 879.184 236.395C877.66 236.395 876.676 237.531 876.676 238.996V247H873.758V238.691C873.758 237.273 872.879 236.395 871.449 236.395C870.008 236.395 868.953 237.613 868.953 239.207V247H866.035ZM887.879 247V234.191H890.797V236.148H890.996C891.605 234.777 892.836 233.945 894.688 233.945C897.547 233.945 899.105 235.668 899.105 238.715V247H896.188V239.395C896.188 237.402 895.379 236.395 893.609 236.395C891.875 236.395 890.797 237.613 890.797 239.535V247H887.879ZM908.082 247.258C904.238 247.258 901.918 244.75 901.918 240.602V240.578C901.918 236.465 904.273 233.945 908.082 233.945C911.902 233.945 914.246 236.453 914.246 240.578V240.602C914.246 244.75 911.914 247.258 908.082 247.258ZM908.082 244.891C910.109 244.891 911.258 243.309 911.258 240.613V240.59C911.258 237.895 910.098 236.301 908.082 236.301C906.055 236.301 904.895 237.895 904.895 240.59V240.613C904.895 243.309 906.055 244.891 908.082 244.891ZM917.176 251.254V234.191H920.094V236.195H920.293C920.996 234.801 922.391 233.98 924.184 233.98C927.395 233.98 929.445 236.535 929.445 240.59V240.613C929.445 244.691 927.43 247.211 924.184 247.211C922.426 247.211 920.961 246.344 920.293 244.961H920.094V251.254H917.176ZM923.27 244.75C925.262 244.75 926.469 243.18 926.469 240.613V240.59C926.469 238.012 925.262 236.441 923.27 236.441C921.289 236.441 920.059 238.012 920.059 240.578V240.602C920.059 243.168 921.289 244.75 923.27 244.75ZM941.129 251.254V245.055H940.93C940.273 246.414 938.844 247.211 937.016 247.211C933.793 247.211 931.766 244.668 931.766 240.613V240.59C931.766 236.512 933.77 233.98 937.051 233.98C938.773 233.98 940.238 234.859 940.977 236.312H941.129V234.191H944.047V251.254H941.129ZM937.953 244.75C939.922 244.75 941.176 243.168 941.176 240.613V240.59C941.176 238.035 939.91 236.441 937.941 236.441C935.949 236.441 934.73 238.012 934.73 240.59V240.613C934.73 243.191 935.949 244.75 937.953 244.75ZM947.598 247V234.191H950.516V236.16H950.715C951.148 234.789 952.32 233.98 954.008 233.98C954.453 233.98 954.91 234.039 955.191 234.121V236.734C954.723 236.641 954.242 236.57 953.738 236.57C951.793 236.57 950.516 237.73 950.516 239.559V247H947.598ZM962.141 247.258C958.883 247.258 956.914 245.758 956.668 243.59V243.566H959.562L959.574 243.59C959.879 244.48 960.734 245.102 962.188 245.102C963.641 245.102 964.648 244.445 964.648 243.484V243.461C964.648 242.711 964.086 242.219 962.68 241.902L960.605 241.434C958.168 240.895 957.008 239.746 957.008 237.859V237.848C957.008 235.539 959.117 233.945 962.141 233.945C965.258 233.945 967.121 235.492 967.309 237.566V237.59H964.566L964.555 237.555C964.344 236.746 963.5 236.09 962.129 236.09C960.828 236.09 959.891 236.723 959.891 237.684V237.695C959.891 238.445 960.43 238.902 961.812 239.219L963.887 239.676C966.395 240.238 967.578 241.305 967.578 243.168V243.191C967.578 245.629 965.293 247.258 962.141 247.258ZM975.465 247.059C972.523 247.059 971.316 246.074 971.316 243.602V236.453H969.324V234.191H971.316V231.051H974.281V234.191H976.988V236.453H974.281V242.91C974.281 244.188 974.785 244.727 976.004 244.727C976.414 244.727 976.637 244.715 976.988 244.68V246.93C976.566 247.012 976.027 247.059 975.465 247.059ZM984.137 247.258C981.254 247.258 979.777 245.523 979.777 242.477V234.191H982.695V241.809C982.695 243.789 983.434 244.797 985.191 244.797C987.078 244.797 988.086 243.578 988.086 241.656V234.191H991.004V247H988.086V245.055H987.887C987.289 246.426 985.988 247.258 984.137 247.258ZM998.012 247L993.453 234.191H996.57L999.535 244.152H999.734L1002.68 234.191H1005.75L1001.21 247H998.012ZM1010.64 247L1007.18 234.191H1010.11L1012.24 243.812H1012.44L1014.9 234.191H1017.68L1020.16 243.812H1020.36L1022.48 234.191H1025.38L1021.91 247H1018.85L1016.35 237.719H1016.15L1013.67 247H1010.64ZM1026.95 247L1031.09 240.648L1026.91 234.191H1030.29L1032.83 238.633H1033.03L1035.56 234.191H1038.76L1034.62 240.52L1038.8 247H1035.52L1032.9 242.547H1032.7L1030.09 247H1026.95ZM1042.74 251.5C1042.39 251.5 1041.98 251.488 1041.63 251.453V249.215C1041.86 249.238 1042.19 249.25 1042.5 249.25C1043.69 249.25 1044.41 248.758 1044.72 247.598L1044.88 247.012L1040.29 234.191H1043.48L1046.47 244.199H1046.69L1049.67 234.191H1052.74L1048.14 247.27C1047.04 250.48 1045.58 251.5 1042.74 251.5ZM1054.95 247V245.219L1061.79 236.652V236.453H1055.01V234.191H1065.23V236.137L1058.64 244.539V244.75H1065.34V247H1054.95ZM709.801 276V262.066H709.602L705.395 265.043V262.195L709.812 259.09H712.824V276H709.801ZM717.523 276V273.961L723.078 268.289C725.375 265.969 726.02 265.113 726.02 263.812V263.777C726.02 262.219 724.953 261.094 723.195 261.094C721.402 261.094 720.195 262.277 720.195 264.023L720.184 264.07L717.371 264.059L717.359 264.023C717.359 260.871 719.82 258.668 723.348 258.668C726.641 258.668 729.008 260.672 729.008 263.52V263.555C729.008 265.477 728.082 267 725 269.965L721.613 273.246V273.492H729.266V276H717.523ZM738.734 276.34C735.031 276.34 732.605 274.324 732.383 271.43L732.371 271.289H735.254L735.266 271.418C735.43 272.848 736.754 273.867 738.734 273.867C740.691 273.867 741.992 272.777 741.992 271.207V271.184C741.992 269.402 740.68 268.418 738.512 268.418H736.52V266.168H738.453C740.316 266.168 741.559 265.113 741.559 263.637V263.613C741.559 262.066 740.516 261.152 738.711 261.152C736.93 261.152 735.699 262.102 735.547 263.613L735.535 263.73H732.723L732.734 263.602C732.992 260.672 735.301 258.75 738.711 258.75C742.191 258.75 744.453 260.566 744.453 263.215V263.238C744.453 265.336 742.941 266.73 740.914 267.152V267.211C743.398 267.445 745.051 268.922 745.051 271.266V271.289C745.051 274.266 742.484 276.34 738.734 276.34ZM756.125 276V272.754H747.852V270.281C750.043 266.473 752.445 262.582 754.742 259.09H759.02V270.258H761.293V272.754H759.02V276H756.125ZM750.664 270.328H756.172V261.504H755.996C754.262 264.152 752.305 267.281 750.664 270.152V270.328ZM770.551 276.422C767.094 276.422 764.762 274.312 764.539 271.535L764.527 271.383H767.316L767.328 271.465C767.551 272.848 768.828 273.949 770.562 273.949C772.543 273.949 773.902 272.555 773.902 270.562V270.539C773.902 268.57 772.52 267.188 770.586 267.188C769.637 267.188 768.816 267.469 768.195 268.031C767.891 268.289 767.609 268.617 767.41 268.992H764.82L765.641 259.09H775.789V261.574H767.996L767.527 266.719H767.727C768.43 265.582 769.742 264.902 771.336 264.902C774.488 264.902 776.773 267.246 776.773 270.48V270.504C776.773 274.02 774.207 276.422 770.551 276.422ZM786.441 276.422C782.832 276.422 779.691 273.855 779.691 267.762V267.738C779.691 262.043 782.258 258.668 786.512 258.668C789.617 258.668 791.938 260.508 792.477 263.098L792.5 263.227H789.535L789.488 263.109C789.043 261.926 788 261.152 786.512 261.152C783.828 261.152 782.691 263.777 782.562 267.012C782.562 267.141 782.551 267.27 782.551 267.398H782.785C783.406 266.062 784.883 264.879 787.203 264.879C790.449 264.879 792.723 267.246 792.723 270.457V270.48C792.723 273.914 790.109 276.422 786.441 276.422ZM783.078 270.516C783.078 272.449 784.543 273.961 786.418 273.961C788.293 273.961 789.77 272.473 789.77 270.586V270.562C789.77 268.605 788.375 267.199 786.453 267.199C784.543 267.199 783.078 268.582 783.078 270.492V270.516ZM796.73 276L804.078 261.75V261.562H795.359V259.09H807.125V261.609L799.895 276H796.73ZM816.184 276.34C812.293 276.34 809.586 274.324 809.586 271.43V271.406C809.586 269.238 811.168 267.562 813.418 267.105V267.035C811.484 266.52 810.195 265.102 810.195 263.285V263.262C810.195 260.66 812.68 258.75 816.184 258.75C819.688 258.75 822.172 260.66 822.172 263.262V263.285C822.172 265.102 820.883 266.52 818.949 267.035V267.105C821.211 267.562 822.781 269.238 822.781 271.406V271.43C822.781 274.324 820.074 276.34 816.184 276.34ZM816.184 266.074C817.953 266.074 819.184 265.043 819.184 263.566V263.543C819.184 262.066 817.953 261.035 816.184 261.035C814.414 261.035 813.184 262.066 813.184 263.543V263.566C813.184 265.043 814.414 266.074 816.184 266.074ZM816.184 274.031C818.211 274.031 819.652 272.859 819.652 271.23V271.207C819.652 269.566 818.223 268.383 816.184 268.383C814.133 268.383 812.715 269.566 812.715 271.207V271.23C812.715 272.859 814.156 274.031 816.184 274.031ZM831.992 258.668C835.602 258.668 838.742 261.234 838.742 267.328V267.352C838.742 273.047 836.176 276.422 831.922 276.422C828.816 276.422 826.496 274.582 825.957 271.992L825.934 271.863H828.91L828.945 271.98C829.391 273.164 830.434 273.938 831.922 273.938C834.605 273.938 835.742 271.312 835.871 268.078C835.871 267.949 835.883 267.82 835.883 267.691H835.648C835.027 269.027 833.551 270.211 831.23 270.211C827.984 270.211 825.711 267.844 825.711 264.633V264.609C825.711 261.176 828.324 258.668 831.992 258.668ZM831.98 267.891C833.891 267.891 835.355 266.508 835.355 264.598V264.574C835.355 262.641 833.891 261.129 832.016 261.129C830.152 261.129 828.664 262.617 828.664 264.504V264.527C828.664 266.484 830.059 267.891 831.98 267.891ZM848.199 276.422C844.18 276.422 841.766 273.012 841.766 267.551V267.527C841.766 262.066 844.18 258.668 848.199 258.668C852.219 258.668 854.656 262.066 854.656 267.527V267.551C854.656 273.012 852.219 276.422 848.199 276.422ZM848.199 273.973C850.355 273.973 851.609 271.559 851.609 267.551V267.527C851.609 263.52 850.355 261.129 848.199 261.129C846.043 261.129 844.812 263.52 844.812 267.527V267.551C844.812 271.559 846.043 273.973 848.199 273.973ZM859.016 276.234C857.949 276.234 857.152 275.426 857.152 274.383C857.152 273.34 857.949 272.531 859.016 272.531C860.094 272.531 860.879 273.34 860.879 274.383C860.879 275.426 860.094 276.234 859.016 276.234ZM864.676 270.762V267.598L877.004 262.887V265.559L866.902 269.145L877.004 272.719V275.473L864.676 270.762ZM882.664 267.527C881.598 267.527 880.801 266.719 880.801 265.688C880.801 264.645 881.598 263.836 882.664 263.836C883.742 263.836 884.527 264.645 884.527 265.688C884.527 266.719 883.742 267.527 882.664 267.527ZM882.664 276.234C881.598 276.234 880.801 275.414 880.801 274.383C880.801 273.34 881.598 272.531 882.664 272.531C883.742 272.531 884.527 273.34 884.527 274.383C884.527 275.414 883.742 276.234 882.664 276.234ZM890.562 267.527C889.496 267.527 888.699 266.719 888.699 265.688C888.699 264.645 889.496 263.836 890.562 263.836C891.641 263.836 892.426 264.645 892.426 265.688C892.426 266.719 891.641 267.527 890.562 267.527ZM888.008 280.465L889.027 273.422H892.039L890 280.465H888.008ZM899.094 270.727L899.082 269.895C898.977 268.16 899.656 267.105 901.273 266.156C902.727 265.277 903.219 264.645 903.219 263.496V263.473C903.219 262.242 902.234 261.34 900.758 261.34C899.246 261.34 898.273 262.266 898.191 263.707L898.168 263.719L895.438 263.73V263.707C895.52 260.965 897.43 258.949 900.91 258.949C904.121 258.949 906.266 260.801 906.266 263.367V263.391C906.266 265.172 905.375 266.426 903.781 267.375C902.246 268.266 901.812 268.875 901.812 270.047V270.727H899.094ZM900.582 276.293C899.41 276.293 898.637 275.566 898.637 274.453C898.637 273.328 899.41 272.602 900.582 272.602C901.777 272.602 902.527 273.328 902.527 274.453C902.527 275.566 901.777 276.293 900.582 276.293ZM910.215 270.41L909.945 259.078H913.191L912.922 270.41H910.215ZM911.574 276.293C910.391 276.293 909.629 275.566 909.629 274.453C909.629 273.328 910.391 272.602 911.574 272.602C912.758 272.602 913.52 273.328 913.52 274.453C913.52 275.566 912.758 276.293 911.574 276.293ZM923.41 258.234L918.371 280.254H915.652L920.691 258.234H923.41ZM923.516 276L929.516 259.09H932.926L938.926 276H935.762L934.344 271.629H928.086L926.68 276H923.516ZM931.121 262.23L928.848 269.297H933.594L931.32 262.23H931.121ZM941.832 276V259.09H948.898C952.109 259.09 954.043 260.707 954.043 263.297V263.32C954.043 265.09 952.73 266.66 951.031 266.93V267.141C953.305 267.352 954.875 268.992 954.875 271.184V271.207C954.875 274.172 952.672 276 949.062 276H941.832ZM948.16 261.445H944.855V266.215H947.773C949.918 266.215 951.055 265.383 951.055 263.848V263.824C951.055 262.324 949.988 261.445 948.16 261.445ZM948.254 268.359H944.855V273.645H948.371C950.598 273.645 951.781 272.719 951.781 270.996V270.973C951.781 269.262 950.562 268.359 948.254 268.359ZM965.223 276.422C960.43 276.422 957.453 273.023 957.453 267.562V267.539C957.453 262.055 960.418 258.668 965.211 258.668C969.055 258.668 971.973 261.105 972.371 264.562V264.656H969.406L969.395 264.609C968.961 262.605 967.344 261.281 965.211 261.281C962.34 261.281 960.547 263.684 960.547 267.527V267.551C960.547 271.406 962.34 273.809 965.223 273.809C967.367 273.809 968.961 272.613 969.395 270.75L969.406 270.691H972.371V270.773C971.926 274.16 969.125 276.422 965.223 276.422ZM978.934 276.211C976.496 276.211 974.727 274.711 974.727 272.379V272.355C974.727 270.07 976.473 268.734 979.59 268.547L982.883 268.348V267.246C982.883 265.969 982.051 265.266 980.48 265.266C979.145 265.266 978.277 265.746 977.984 266.59L977.973 266.637H975.219L975.23 266.531C975.512 264.375 977.574 262.945 980.621 262.945C983.914 262.945 985.766 264.539 985.766 267.246V276H982.883V274.242H982.684C981.98 275.484 980.621 276.211 978.934 276.211ZM977.609 272.238C977.609 273.328 978.535 273.973 979.824 273.973C981.582 273.973 982.883 272.824 982.883 271.301V270.27L980 270.457C978.371 270.562 977.609 271.16 977.609 272.215V272.238ZM996.395 276.211C994.602 276.211 993.207 275.391 992.504 273.996H992.305V276H989.387V258.234H992.305V265.23H992.504C993.172 263.848 994.637 262.98 996.395 262.98C999.641 262.98 1001.66 265.512 1001.66 269.59V269.613C1001.66 273.668 999.605 276.211 996.395 276.211ZM995.48 273.75C997.473 273.75 998.68 272.191 998.68 269.613V269.59C998.68 267.012 997.473 265.441 995.48 265.441C993.5 265.441 992.27 267.023 992.27 269.59V269.613C992.27 272.18 993.5 273.75 995.48 273.75ZM1010.07 276.258C1006.21 276.258 1003.94 273.762 1003.94 269.578V269.555C1003.94 265.418 1006.2 262.945 1010.06 262.945C1013.35 262.945 1015.32 264.773 1015.65 267.422V267.469H1012.89L1012.88 267.434C1012.61 266.191 1011.66 265.301 1010.07 265.301C1008.08 265.301 1006.91 266.871 1006.91 269.555V269.578C1006.91 272.297 1008.09 273.891 1010.07 273.891C1011.58 273.891 1012.51 273.199 1012.87 271.852L1012.89 271.805L1015.65 271.793L1015.62 271.887C1015.2 274.512 1013.32 276.258 1010.07 276.258ZM1022.55 276V262.066H1022.35L1018.14 265.043V262.195L1022.56 259.09H1025.57V276H1022.55ZM1030.27 276V273.961L1035.83 268.289C1038.12 265.969 1038.77 265.113 1038.77 263.812V263.777C1038.77 262.219 1037.7 261.094 1035.95 261.094C1034.15 261.094 1032.95 262.277 1032.95 264.023L1032.93 264.07L1030.12 264.059L1030.11 264.023C1030.11 260.871 1032.57 258.668 1036.1 258.668C1039.39 258.668 1041.76 260.672 1041.76 263.52V263.555C1041.76 265.477 1040.83 267 1037.75 269.965L1034.36 273.246V273.492H1042.02V276H1030.27ZM1051.48 276.34C1047.78 276.34 1045.36 274.324 1045.13 271.43L1045.12 271.289H1048L1048.02 271.418C1048.18 272.848 1049.5 273.867 1051.48 273.867C1053.44 273.867 1054.74 272.777 1054.74 271.207V271.184C1054.74 269.402 1053.43 268.418 1051.26 268.418H1049.27V266.168H1051.2C1053.07 266.168 1054.31 265.113 1054.31 263.637V263.613C1054.31 262.066 1053.27 261.152 1051.46 261.152C1049.68 261.152 1048.45 262.102 1048.3 263.613L1048.29 263.73H1045.47L1045.48 263.602C1045.74 260.672 1048.05 258.75 1051.46 258.75C1054.94 258.75 1057.2 260.566 1057.2 263.215V263.238C1057.2 265.336 1055.69 266.73 1053.66 267.152V267.211C1056.15 267.445 1057.8 268.922 1057.8 271.266V271.289C1057.8 274.266 1055.23 276.34 1051.48 276.34ZM1062.36 276.234C1061.29 276.234 1060.5 275.426 1060.5 274.383C1060.5 273.34 1061.29 272.531 1062.36 272.531C1063.44 272.531 1064.22 273.34 1064.22 274.383C1064.22 275.426 1063.44 276.234 1062.36 276.234ZM1070.26 276.234C1069.19 276.234 1068.39 275.426 1068.39 274.383C1068.39 273.34 1069.19 272.531 1070.26 272.531C1071.34 272.531 1072.12 273.34 1072.12 274.383C1072.12 275.426 1071.34 276.234 1070.26 276.234ZM1078.16 276.234C1077.09 276.234 1076.29 275.426 1076.29 274.383C1076.29 273.34 1077.09 272.531 1078.16 272.531C1079.23 272.531 1080.02 273.34 1080.02 274.383C1080.02 275.426 1079.23 276.234 1078.16 276.234ZM658.777 334.41C654.957 334.41 652.508 332.477 652.273 329.629L652.262 329.477H654.84L654.852 329.605C654.992 331.141 656.621 332.125 658.883 332.125C661.039 332.125 662.574 331.047 662.574 329.477V329.465C662.574 328.164 661.66 327.32 659.422 326.84L657.57 326.441C654.137 325.715 652.66 324.121 652.66 321.625V321.613C652.672 318.695 655.203 316.68 658.789 316.68C662.375 316.68 664.719 318.707 664.906 321.332L664.918 321.496H662.375L662.352 321.344C662.129 319.961 660.805 318.953 658.754 318.965C656.773 318.965 655.309 319.891 655.309 321.484V321.496C655.309 322.75 656.199 323.57 658.391 324.039L660.23 324.449C663.781 325.211 665.234 326.641 665.234 329.148V329.16C665.234 332.395 662.715 334.41 658.777 334.41ZM668.691 334V317.09H679.25V319.352H671.316V324.707H678.582V326.922H671.316V334H668.691ZM689.223 334V317.09H695.809C699.125 317.09 701.422 319.316 701.422 322.633V322.656C701.422 325.961 699.125 328.223 695.809 328.223H691.848V334H689.223ZM695.152 319.305H691.848V326.02H695.152C697.426 326.02 698.75 324.789 698.75 322.668V322.645C698.75 320.535 697.426 319.305 695.152 319.305ZM704.516 334V321.273H707.059V323.195H707.246C707.703 321.848 708.887 321.051 710.586 321.051C710.996 321.051 711.441 321.109 711.699 321.168V323.512C711.242 323.418 710.809 323.359 710.328 323.359C708.383 323.359 707.059 324.555 707.059 326.395V334H704.516ZM719.188 334.246C715.449 334.246 713.164 331.75 713.164 327.648V327.625C713.164 323.535 715.461 321.027 719.188 321.027C722.902 321.027 725.199 323.523 725.199 327.625V327.648C725.199 331.75 722.914 334.246 719.188 334.246ZM719.188 332.125C721.367 332.125 722.609 330.461 722.609 327.648V327.625C722.609 324.801 721.367 323.148 719.188 323.148C716.996 323.148 715.766 324.801 715.766 327.625V327.648C715.766 330.473 716.996 332.125 719.188 332.125ZM739.379 334V319.352H734.059V317.09H747.312V319.352H742.004V334H739.379ZM753.289 334.246C749.562 334.246 747.312 331.703 747.312 327.672V327.66C747.312 323.688 749.609 321.027 753.16 321.027C756.711 321.027 758.891 323.594 758.891 327.414V328.305H749.867C749.914 330.742 751.25 332.16 753.348 332.16C754.977 332.16 755.949 331.352 756.254 330.695L756.301 330.602L758.75 330.59L758.727 330.695C758.305 332.371 756.547 334.246 753.289 334.246ZM753.172 323.113C751.438 323.113 750.125 324.297 749.902 326.488H756.371C756.172 324.215 754.895 323.113 753.172 323.113ZM760.438 334L764.668 327.66L760.402 321.273H763.344L766.086 325.82H766.285L769.004 321.273H771.816L767.609 327.555L771.863 334H768.969L766.18 329.406H765.992L763.203 334H760.438ZM779.305 334.082C776.504 334.082 775.355 333.098 775.355 330.648V323.277H773.363V321.273H775.355V318.062H777.945V321.273H780.676V323.277H777.945V330.039C777.945 331.41 778.461 331.973 779.715 331.973C780.102 331.973 780.324 331.961 780.676 331.926V333.953C780.266 334.023 779.797 334.082 779.305 334.082Z" fill="#101010"/>
<path d="M790.168 328.352V326.02H798.008V328.352H790.168ZM814.332 334.422C810.406 334.422 807.91 332.488 807.699 329.57L807.688 329.406H810.617L810.629 329.523C810.77 330.941 812.281 331.879 814.426 331.879C816.465 331.879 817.895 330.871 817.895 329.418V329.406C817.895 328.188 817.016 327.449 814.836 326.98L813.02 326.605C809.562 325.879 808.062 324.262 808.062 321.742V321.73C808.062 318.707 810.664 316.668 814.32 316.668C818.07 316.668 820.402 318.719 820.613 321.438L820.625 321.59H817.73L817.707 321.449C817.496 320.137 816.242 319.199 814.309 319.211C812.434 319.211 811.098 320.09 811.098 321.531V321.543C811.098 322.738 811.953 323.488 814.062 323.934L815.879 324.32C819.441 325.07 820.93 326.5 820.93 329.055V329.066C820.93 332.359 818.387 334.422 814.332 334.422ZM829.508 334.258C825.699 334.258 823.391 331.703 823.391 327.625V327.613C823.391 323.582 825.723 320.945 829.367 320.945C833.012 320.945 835.262 323.5 835.262 327.367V328.328H826.309C826.344 330.625 827.586 331.961 829.566 331.961C831.148 331.961 832.051 331.164 832.332 330.578L832.367 330.496H835.145L835.109 330.602C834.699 332.254 832.988 334.258 829.508 334.258ZM829.402 323.23C827.773 323.23 826.555 324.332 826.332 326.371H832.414C832.215 324.273 831.031 323.23 829.402 323.23ZM838.18 334V321.191H841.098V323.184H841.297C841.848 321.754 843.137 320.945 844.812 320.945C846.547 320.945 847.812 321.836 848.363 323.254H848.562C849.184 321.859 850.66 320.945 852.441 320.945C855.02 320.945 856.566 322.527 856.566 325.188V334H853.648V325.902C853.648 324.238 852.887 323.395 851.328 323.395C849.805 323.395 848.82 324.531 848.82 325.996V334H845.902V325.691C845.902 324.273 845.023 323.395 843.594 323.395C842.152 323.395 841.098 324.613 841.098 326.207V334H838.18ZM861.523 319.047C860.562 319.047 859.777 318.285 859.777 317.324C859.777 316.375 860.562 315.602 861.523 315.602C862.473 315.602 863.258 316.375 863.258 317.324C863.258 318.285 862.473 319.047 861.523 319.047ZM860.059 334V321.191H862.977V334H860.059ZM866.621 328.504V325.855H874.449V328.504H866.621ZM885.219 334.211C883.426 334.211 882.031 333.391 881.328 331.996H881.129V334H878.211V316.234H881.129V323.23H881.328C881.996 321.848 883.461 320.98 885.219 320.98C888.465 320.98 890.48 323.512 890.48 327.59V327.613C890.48 331.668 888.43 334.211 885.219 334.211ZM884.305 331.75C886.297 331.75 887.504 330.191 887.504 327.613V327.59C887.504 325.012 886.297 323.441 884.305 323.441C882.324 323.441 881.094 325.023 881.094 327.59V327.613C881.094 330.18 882.324 331.75 884.305 331.75ZM898.93 334.258C895.086 334.258 892.766 331.75 892.766 327.602V327.578C892.766 323.465 895.121 320.945 898.93 320.945C902.75 320.945 905.094 323.453 905.094 327.578V327.602C905.094 331.75 902.762 334.258 898.93 334.258ZM898.93 331.891C900.957 331.891 902.105 330.309 902.105 327.613V327.59C902.105 324.895 900.945 323.301 898.93 323.301C896.902 323.301 895.742 324.895 895.742 327.59V327.613C895.742 330.309 896.902 331.891 898.93 331.891ZM908.141 334V316.234H911.059V334H908.141ZM919.367 334.211C916.156 334.211 914.117 331.668 914.117 327.613V327.59C914.117 323.512 916.121 320.98 919.367 320.98C921.125 320.98 922.59 321.848 923.258 323.23H923.457V316.234H926.387V334H923.457V331.996H923.258C922.555 333.391 921.172 334.211 919.367 334.211ZM920.281 331.75C922.273 331.75 923.504 330.18 923.504 327.613V327.59C923.504 325.023 922.262 323.441 920.281 323.441C918.301 323.441 917.082 325.012 917.082 327.59V327.613C917.082 330.191 918.289 331.75 920.281 331.75ZM929.656 338.395L930.688 331.516H933.395L931.449 338.395H929.656ZM944.527 334V317.09H947.551L952.941 330.578H953.129L958.52 317.09H961.543V334H959.152V321.59H958.977L954.008 334H952.062L947.105 321.59H946.918V334H944.527ZM970.836 334.246C967.109 334.246 964.859 331.703 964.859 327.672V327.66C964.859 323.688 967.156 321.027 970.707 321.027C974.258 321.027 976.438 323.594 976.438 327.414V328.305H967.414C967.461 330.742 968.797 332.16 970.895 332.16C972.523 332.16 973.496 331.352 973.801 330.695L973.848 330.602L976.297 330.59L976.273 330.695C975.852 332.371 974.094 334.246 970.836 334.246ZM970.719 323.113C968.984 323.113 967.672 324.297 967.449 326.488H973.918C973.719 324.215 972.441 323.113 970.719 323.113ZM984.102 334.211C980.902 334.211 978.828 331.645 978.828 327.648V327.625C978.828 323.594 980.867 321.051 984.102 321.051C985.848 321.051 987.336 321.918 988.016 323.289H988.215V316.281H990.746V334H988.215V331.996H988.016C987.277 333.391 985.883 334.211 984.102 334.211ZM984.828 332.043C986.949 332.043 988.25 330.367 988.25 327.648V327.625C988.25 324.906 986.938 323.23 984.828 323.23C982.695 323.23 981.418 324.895 981.418 327.625V327.648C981.418 330.379 982.695 332.043 984.828 332.043ZM995.855 319C994.977 319 994.262 318.285 994.262 317.418C994.262 316.539 994.977 315.824 995.855 315.824C996.723 315.824 997.449 316.539 997.449 317.418C997.449 318.285 996.723 319 995.855 319ZM994.578 334V321.273H997.109V334H994.578ZM1005.05 334.246C1002.18 334.246 1000.7 332.523 1000.7 329.512V321.273H1003.24V328.914C1003.24 331.023 1004.01 332.066 1005.88 332.066C1007.91 332.066 1009 330.789 1009 328.738V321.273H1011.54V334H1009V332.078H1008.8C1008.2 333.449 1006.91 334.246 1005.05 334.246ZM1015.2 334V321.273H1017.75V323.23H1017.93C1018.5 321.836 1019.74 321.027 1021.4 321.027C1023.14 321.027 1024.37 321.93 1024.93 323.301H1025.13C1025.77 321.93 1027.24 321.027 1029.01 321.027C1031.57 321.027 1033.07 322.574 1033.07 325.223V334H1030.54V325.832C1030.54 324.074 1029.75 323.207 1028.08 323.207C1026.46 323.207 1025.4 324.414 1025.4 325.949V334H1022.87V325.574C1022.87 324.121 1021.92 323.207 1020.42 323.207C1018.88 323.207 1017.75 324.52 1017.75 326.184V334H1015.2ZM1036.18 338.395L1037.21 331.516H1039.92L1037.97 338.395H1036.18ZM1051.09 334V317.09H1057.54C1060.8 317.09 1062.93 319.082 1062.93 322.117V322.141C1062.93 324.484 1061.66 326.312 1059.54 326.98L1063.45 334H1060.98L1057.36 327.309H1053.2V334H1051.09ZM1053.2 325.434H1057.36C1059.52 325.434 1060.75 324.273 1060.75 322.211V322.188C1060.75 320.172 1059.44 318.965 1057.26 318.965H1053.2V325.434ZM1071.31 334.223C1067.7 334.223 1065.52 331.691 1065.52 327.73V327.719C1065.52 323.816 1067.75 321.145 1071.18 321.145C1074.62 321.145 1076.7 323.699 1076.7 327.473V328.27H1067.61C1067.67 330.883 1069.11 332.406 1071.36 332.406C1073.07 332.406 1074.12 331.598 1074.46 330.836L1074.51 330.73H1076.55L1076.53 330.824C1076.09 332.535 1074.29 334.223 1071.31 334.223ZM1071.17 322.961C1069.3 322.961 1067.87 324.238 1067.64 326.641H1074.63C1074.42 324.145 1073.04 322.961 1071.17 322.961ZM1085.07 338.453C1082.02 338.453 1080.08 337.082 1079.76 335.008L1079.79 334.996H1081.89L1081.91 335.008C1082.13 335.969 1083.25 336.648 1085.07 336.648C1087.33 336.648 1088.68 335.582 1088.68 333.719V331.164H1088.49C1087.7 332.559 1086.27 333.344 1084.53 333.344C1081.26 333.344 1079.23 330.812 1079.23 327.273V327.25C1079.23 323.711 1081.27 321.145 1084.58 321.145C1086.36 321.145 1087.74 322.023 1088.52 323.453H1088.66V321.367H1090.7V333.824C1090.7 336.648 1088.52 338.453 1085.07 338.453ZM1084.98 331.539C1087.32 331.539 1088.73 329.781 1088.73 327.273V327.25C1088.73 324.742 1087.31 322.949 1084.98 322.949C1082.63 322.949 1081.32 324.742 1081.32 327.25V327.273C1081.32 329.781 1082.63 331.539 1084.98 331.539ZM1098.72 334.223C1095.85 334.223 1094.38 332.535 1094.38 329.547V321.367H1096.41V329.055C1096.41 331.328 1097.23 332.418 1099.25 332.418C1101.48 332.418 1102.66 331.059 1102.66 328.844V321.367H1104.7V334H1102.66V332.113H1102.47C1101.85 333.461 1100.57 334.223 1098.72 334.223ZM1108.62 334V316.352H1110.66V334H1108.62ZM1118.05 334.223C1115.64 334.223 1113.83 332.77 1113.83 330.473V330.449C1113.83 328.199 1115.49 326.898 1118.43 326.723L1122.05 326.5V325.352C1122.05 323.793 1121.11 322.949 1119.22 322.949C1117.71 322.949 1116.71 323.512 1116.38 324.496L1116.37 324.531H1114.33L1114.34 324.461C1114.67 322.48 1116.59 321.145 1119.29 321.145C1122.37 321.145 1124.09 322.727 1124.09 325.352V334H1122.05V332.137H1121.87C1121.07 333.484 1119.75 334.223 1118.05 334.223ZM1115.91 330.426C1115.91 331.703 1117 332.453 1118.47 332.453C1120.54 332.453 1122.05 331.094 1122.05 329.289V328.141L1118.68 328.352C1116.76 328.469 1115.91 329.148 1115.91 330.402V330.426ZM1127.82 334V321.367H1129.86V323.242H1130.05C1130.53 321.918 1131.71 321.145 1133.42 321.145C1133.81 321.145 1134.24 321.191 1134.44 321.227V323.207C1134.02 323.137 1133.63 323.09 1133.19 323.09C1131.24 323.09 1129.86 324.32 1129.86 326.172V334H1127.82Z" fill="#757575"/>
</svg>
